HIERARCHY
ROOT Hips
{
	OFFSET 0.0000 0.0000 0.0000
	CHANNELS 6 Xposition Yposition Zposition Zrotation Xrotation Yrotation
	JOINT Ab
	{
		OFFSET -0.0000 8.1305 -0.0000
		CHANNELS 3 Zrotation Xrotation Yrotation
		JOINT Chest
		{
			OFFSET -0.0000 26.2902 -0.0000
			CHANNELS 3 Zrotation Xrotation Yrotation
			JOINT Neck
			{
				OFFSET -0.0000 26.2902 0.0000
				CHANNELS 3 Zrotation Xrotation Yrotation
				JOINT Head
				{
					OFFSET -0.0000 10.8167 0.0000
					CHANNELS 3 Zrotation Xrotation Yrotation
					End Site
					{
						OFFSET -0.0000 16.7167 0.0000
					}
				}
			}
			JOINT LeftCollar
			{
				OFFSET -0.0000 26.2902 0.0000
				CHANNELS 3 Zrotation Xrotation Yrotation
				JOINT LeftShoulder
				{
					OFFSET 19.6667 -0.0000 0.0000
					CHANNELS 3 Zrotation Xrotation Yrotation
					JOINT LeftElbow
					{
						OFFSET 27.2190 0.0000 0.0000
						CHANNELS 3 Zrotation Xrotation Yrotation
						JOINT LeftWrist
						{
							OFFSET 30.7431 0.0000 0.0000
							CHANNELS 3 Zrotation Xrotation Yrotation
							End Site
							{
								OFFSET 0.0000 -14.7500 0.0000
							}
						}
					}
				}
			}
			JOINT RightCollar
			{
				OFFSET -0.0000 26.2902 0.0000
				CHANNELS 3 Zrotation Xrotation Yrotation
				JOINT RightShoulder
				{
					OFFSET -19.6667 0.0000 0.0000
					CHANNELS 3 Zrotation Xrotation Yrotation
					JOINT RightElbow
					{
						OFFSET -27.2190 0.0000 0.0000
						CHANNELS 3 Zrotation Xrotation Yrotation
						JOINT RightWrist
						{
							OFFSET -30.7431 0.0000 0.0000
							CHANNELS 3 Zrotation Xrotation Yrotation
							End Site
							{
								OFFSET -0.0000 -14.7500 0.0000
							}
						}
					}
				}
			}
		}
	}
	JOINT LeftHip
	{
		OFFSET 11.8000 0.0000 0.0000
		CHANNELS 3 Zrotation Xrotation Yrotation
		JOINT LeftKnee
		{
			OFFSET -0.0000 -39.7832 0.0000
			CHANNELS 3 Zrotation Xrotation Yrotation
			JOINT LeftAnkle
			{
				OFFSET -0.0000 -41.7317 0.0000
				CHANNELS 3 Zrotation Xrotation Yrotation
				End Site
				{
					OFFSET -0.0000 -4.9167 16.7167
				}
			}
		}
	}
	JOINT RightHip
	{
		OFFSET -11.8000 0.0000 0.0000
		CHANNELS 3 Zrotation Xrotation Yrotation
		JOINT RightKnee
		{
			OFFSET -0.0000 -39.7832 0.0000
			CHANNELS 3 Zrotation Xrotation Yrotation
			JOINT RightAnkle
			{
				OFFSET -0.0000 -41.7317 0.0000
				CHANNELS 3 Zrotation Xrotation Yrotation
				End Site
				{
					OFFSET -0.0000 -4.9167 16.7167
				}
			}
		}
	}
}
MOTION
Frames: 13
Frame Time: 0.010000
-13.8551 91.2179 91.5487 359.4251 358.9621 177.7752 355.6447 351.0982 359.2838 1.7058 13.8016 359.4379 357.0957 352.7715 0.6974 356.5597 7.8198 1.1040 337.9231 357.3008 13.7946 333.6901 55.8872 327.3827 11.9774 355.5552 319.4416 88.8377 356.5641 350.0221 27.2581 356.0743 343.9073 46.4849 44.3785 1.2506 338.8785 353.7557 32.6334 272.1925 355.5421 7.5020 355.1554 6.9378 2.8841 355.2829 7.7214 357.4391 358.4507 347.6355 16.6285 352.6231 340.0697 0.9008 12.7634 27.9605 5.8629 357.7913 336.5462 322.6802 
-13.8530 91.1655 91.1565 359.4016 358.9466 177.9219 355.6443 351.0815 359.3387 1.7636 13.9052 359.4048 356.9900 352.6962 0.6690 356.6792 7.8432 1.0751 337.9397 357.2976 13.8387 333.4031 55.9430 327.5655 11.9995 355.5885 319.7667 88.9409 356.4863 350.0071 27.2036 356.0984 343.9338 46.4928 44.4145 1.2728 338.9346 353.7866 32.5040 272.1173 355.5357 7.6051 355.1118 7.2277 2.8627 355.3255 7.6484 357.1030 358.7173 347.6073 16.8908 352.6608 339.7687 1.1368 12.5222 26.6199 6.0621 357.9448 336.7795 322.9253 
-13.8491 91.1110 90.7702 359.3670 358.8961 178.0732 355.6343 351.0602 359.3606 1.7938 13.9637 359.4197 357.0081 352.6734 0.5692 356.6711 7.8163 0.9754 337.9913 357.2919 13.8289 333.1623 56.0902 327.7163 11.9973 355.6330 320.1207 89.3150 356.3567 350.2111 27.2126 356.0754 343.9158 46.4773 44.3106 1.2523 338.9701 353.8240 32.4633 271.9514 355.5037 7.5050 355.0633 7.4649 2.8534 355.3692 7.6100 356.7799 358.9238 347.5605 17.1125 352.6885 339.4578 1.3510 12.2675 25.3825 6.2726 358.0213 336.9398 323.1761 
-13.8395 91.0550 90.3788 359.3312 358.8449 178.2312 355.6407 351.0414 359.3532 1.7904 13.9858 359.4295 357.0427 352.7167 0.4985 356.6641 7.7498 0.9003 338.0263 357.2924 13.8207 332.8512 56.1723 327.9951 11.9084 355.6900 320.4649 89.2602 356.3320 350.0594 27.2457 356.0565 343.9142 46.4569 44.2721 1.2246 339.0816 353.8644 32.4037 272.0558 355.5674 7.7940 355.0279 7.6924 2.8461 355.3978 7.5566 356.8290 359.2277 347.5679 16.9567 352.7269 339.1812 1.5343 11.8053 23.8324 6.9274 358.0697 337.4504 323.0729 
-13.8314 90.9997 89.9738 359.2704 358.7931 178.3912 355.6243 350.9916 359.3465 1.7986 14.0542 359.4398 357.0360 352.6813 0.4427 356.6618 7.7381 0.8456 338.0443 357.3113 13.8202 332.5046 56.2039 328.3206 11.8175 355.7679 320.7716 88.9098 356.4189 349.6480 27.2704 356.0698 343.9450 46.4456 44.1832 1.1946 339.1822 353.9072 32.3310 272.0710 355.4596 8.0425 354.9608 7.9173 2.8489 355.4567 7.5283 356.7339 359.3954 347.5314 16.9134 352.7481 338.9645 1.7638 11.4930 22.2723 7.0583 358.2070 337.8860 323.1554 
-13.8271 90.9418 89.5448 359.1928 358.7625 178.5503 355.5921 350.9303 359.3507 1.8226 14.1562 359.4719 356.9973 352.6332 0.3727 356.6731 7.7300 0.7782 338.0138 357.3075 13.7595 332.1090 56.1599 328.7908 11.7121 355.8530 321.0364 88.3015 356.5959 349.0742 27.2837 356.0695 343.9220 46.3502 44.1717 1.2668 339.2485 353.9462 32.2341 271.9865 355.3758 8.2297 354.8743 8.2003 2.8206 355.5120 7.4503 356.7174 359.3426 347.4705 16.8513 352.7532 338.8374 2.1134 11.1779 20.8381 7.2930 358.6153 338.0716 323.1786 
-13.8081 90.8789 89.1499 359.1230 358.6971 178.7681 355.5376 350.9217 359.3404 1.8728 14.1715 359.4505 357.0188 352.5595 0.2965 356.6651 7.7595 0.7029 337.9719 357.3186 13.7011 331.8268 56.1161 329.1760 11.4860 355.9848 321.3785 88.2962 356.5463 348.8828 27.3007 356.0495 343.8939 46.3187 44.1287 1.2768 339.2589 353.9595 32.2471 271.9291 355.5385 8.1903 354.8267 8.3665 2.7984 355.5572 7.4974 356.6409 359.0312 347.4051 16.8248 352.7688 338.6932 2.5179 10.9479 19.4965 7.1578 358.8434 338.2221 323.2965 
-13.7862 90.8157 88.7428 359.0495 358.6562 178.9902 355.4671 350.9414 359.3318 1.9476 14.1645 359.4389 357.0082 352.4795 0.2142 356.6899 7.8019 0.6221 337.9980 357.3354 13.6911 331.4933 56.2158 329.4801 11.3645 356.0565 321.7603 88.3777 356.5581 348.8116 27.2900 356.0565 343.8000 46.2474 44.1655 1.3954 339.2764 353.9548 32.1801 271.9322 355.7308 8.0905 354.7778 8.5652 2.7635 355.5927 7.5393 356.5290 358.8595 347.3478 16.8519 352.7927 338.5920 2.8303 10.7128 18.3312 6.7642 359.0412 338.2789 323.5988 
-13.7567 90.7506 88.3397 358.9845 358.5755 179.1857 355.4258 350.9115 359.3363 2.0044 14.1669 359.4523 356.9531 352.4625 0.1399 356.7809 7.7584 0.5452 337.8578 357.3261 13.4996 331.0784 55.9956 330.2430 10.9863 356.2506 321.9836 88.2977 356.5594 348.4186 27.2812 356.0458 343.7511 46.2540 44.1799 1.4445 339.2066 353.9400 32.0956 272.0004 355.6748 8.0964 354.7365 8.7147 2.7412 355.6380 7.6026 356.3187 359.8084 347.4752 16.8971 352.8549 338.4306 3.1617 10.3300 17.2129 6.6899 359.1366 338.3869 323.7370 
-13.7242 90.6829 87.9258 358.9214 358.5036 179.3718 355.4739 350.9154 359.3204 1.9390 14.1092 359.4277 356.8444 352.1832 0.1273 356.9557 8.1632 0.5478 337.8431 357.3494 13.3842 330.5977 55.8659 330.9499 10.7030 356.3762 322.2170 88.5215 356.6696 348.2498 27.3413 356.0311 343.7423 46.2417 44.1704 1.4236 339.2097 353.9527 32.0388 271.9696 355.5284 8.1697 354.6893 8.8710 2.6584 355.6857 7.6738 356.2037 359.8825 347.4810 16.9101 352.9149 338.3067 3.4981 10.1239 16.0665 6.1453 359.0760 338.7300 323.9071 
-13.6889 90.6158 87.4943 358.8655 358.4672 179.5777 355.4935 350.9243 359.3033 1.9305 14.1081 359.4043 356.7796 351.9708 0.0880 357.0315 8.3730 0.5191 337.9336 357.3907 13.3981 330.1853 55.9322 331.3321 10.5740 356.4274 322.5588 88.4840 356.7078 348.0363 27.3435 356.0192 343.7321 46.2660 44.1791 1.4546 339.1467 353.9481 31.9465 271.9852 355.4045 8.0790 354.6581 9.0816 2.5138 355.7179 7.7211 356.0270 359.8678 347.4224 17.0879 352.9845 338.2612 3.8005 9.8856 14.9873 5.7363 359.1146 338.9126 324.0108 
-13.6489 90.5505 87.0404 358.8249 358.4872 179.7929 355.5146 350.9471 359.2827 1.9363 14.1663 359.3903 356.7475 351.8627 0.0266 357.0988 8.3715 0.4563 338.0060 357.3925 13.3930 329.7857 56.0101 331.7507 10.4694 356.4780 322.9118 88.2335 356.5952 347.6632 27.3604 355.9893 343.7132 46.2549 44.1977 1.5138 339.0814 353.9441 31.9383 271.8769 355.5159 7.8256 354.6391 9.3617 2.4532 355.7596 7.7683 355.8853 0.1772 347.3478 17.2231 353.0942 338.3213 4.1910 9.6102 13.9291 5.3009 359.1533 339.0741 324.1215 
-13.5872 90.4805 86.5773 358.8214 358.4946 180.0173 355.5223 350.9328 359.2734 2.0236 14.2589 359.3640 356.6588 351.7589 359.9528 357.2103 8.3388 0.3828 338.0448 357.3985 13.3787 329.4403 56.0741 332.1625 10.2632 356.5937 323.1940 88.1578 356.5346 347.3242 27.3517 356.0100 343.7000 46.2494 44.1430 1.5880 339.0959 353.9468 31.9331 271.7980 355.6142 7.7935 354.6892 9.6169 2.4135 355.7754 7.8564 355.8279 0.3192 347.2291 17.2294 353.2506 338.3379 4.0467 9.2554 13.1501 5.2925 359.1149 339.1811 324.2124 
